<svg width="17.000000" height="16.105286" viewBox="0 0 17 16.1053" fill="none" xmlns="http://www.w3.org/2000/svg" xmlns:xlink="http://www.w3.org/1999/xlink">
	<desc>
			Created with Pixso.
	</desc>
	<defs/>
	<path id="Shape" d="M16.3997 16.1053L0.600342 16.1053C0.278198 16.1053 0 15.8351 0 15.5049L0 1.7561C0 1.41089 0.26355 1.14075 0.600342 1.14075L3.67529 1.14075L3.67529 0.615417C3.67529 0.270203 3.93884 0 4.27563 0C4.61243 0 4.87598 0.270203 4.87598 0.615417L4.87598 1.14075L12.2266 1.14075L12.2266 0.615417C12.2266 0.270203 12.4901 0 12.8269 0C13.1637 0 13.4272 0.270203 13.4272 0.615417L13.4272 1.14075L16.3997 1.14075C16.7365 1.14075 17 1.41089 17 1.7561L17 15.4899C17 15.8351 16.7365 16.1053 16.3997 16.1053ZM1.20068 2.37152L3.67529 2.37152L3.67529 2.70172C3.67529 3.04694 3.93884 3.31714 4.27563 3.31714C4.61243 3.31714 4.87598 3.04694 4.87598 2.70172L4.87598 2.37152L12.2266 2.37152L12.2266 2.70172C12.2266 3.04694 12.4901 3.31714 12.8269 3.31714C13.1637 3.31714 13.4272 3.04694 13.4272 2.70172L13.4272 2.37152L15.814 2.37152L15.814 3.96252L1.20068 3.96252L1.20068 2.37152ZM15.7993 5.1933L1.20068 5.1933L1.20068 14.8895L15.7993 14.8895L15.7993 5.1933Z" clip-rule="evenodd" fill="#000000" fill-opacity="1.000000" fill-rule="evenodd"/>
	<path id="Shape" d="M12.82 8.05L4.17 8.05C3.84 8.05 3.57 8.24 3.57 8.5C3.57 8.75 3.84 8.94 4.17 8.94L12.82 8.94C13.15 8.94 13.42 8.75 13.42 8.5C13.42 8.24 13.15 8.05 12.82 8.05Z" fill="#000000" fill-opacity="1.000000" fill-rule="nonzero"/>
	<path id="Shape" d="M8.36 10.73L4.16 10.73C3.83 10.73 3.57 10.93 3.57 11.18C3.57 11.43 3.83 11.63 4.16 11.63L8.36 11.63C8.69 11.63 8.94 11.43 8.94 11.18C8.94 10.93 8.69 10.73 8.36 10.73Z" fill="#000000" fill-opacity="1.000000" fill-rule="nonzero"/>
</svg>
