<svg width="18.094727" height="16.153809" viewBox="0 0 18.0947 16.1538" fill="none" xmlns="http://www.w3.org/2000/svg" xmlns:xlink="http://www.w3.org/1999/xlink">
	<desc>
			Created with Pixso.
	</desc>
	<defs/>
	<path id="Mask" d="M15.96 2.55C16.72 2.04 17.31 1.25 17.59 0.29C16.87 0.76 16.08 1.1 15.23 1.28C14.56 0.49 13.59 0 12.52 0C10.47 0 8.81 1.82 8.81 4.07C8.81 4.39 8.84 4.7 8.91 5C5.82 4.83 3.09 3.21 1.25 0.74C0.94 1.34 0.75 2.04 0.75 2.79C0.75 4.21 1.41 5.45 2.4 6.19C1.8 6.17 1.22 5.98 0.72 5.68L0.72 5.73C0.72 7.7 2 9.35 3.7 9.72C3.39 9.82 3.06 9.87 2.72 9.87C2.48 9.87 2.25 9.84 2.02 9.8C2.5 11.42 3.87 12.6 5.49 12.63C4.22 13.72 2.62 14.37 0.88 14.37C0.58 14.37 0.28 14.36 0 14.32C1.64 15.47 3.59 16.15 5.69 16.15C12.51 16.15 16.25 9.93 16.25 4.55C16.25 4.37 16.24 4.19 16.24 4.02C16.96 3.44 17.59 2.72 18.09 1.91C17.42 2.23 16.71 2.45 15.96 2.55Z" fill="#FFFFFF" fill-opacity="1.000000" fill-rule="evenodd"/>
</svg>
